<svg xmlns="http://www.w3.org/2000/svg" viewBox="0 0 580 434" fill="none">
<defs>
  <linearGradient id="bg" x1="0" y1="0" x2="580" y2="434" gradientUnits="userSpaceOnUse">
    <stop stop-color="#EFF6FF"/>
    <stop offset="1" stop-color="#F0FDF4"/>
  </linearGradient>
  <filter id="fcard" x="-6%" y="-5%" width="112%" height="114%">
    <feDropShadow dx="0" dy="6" stdDeviation="18" flood-color="#0F172A" flood-opacity=".10"/>
  </filter>
  <filter id="fsm" x="-8%" y="-6%" width="116%" height="118%">
    <feDropShadow dx="0" dy="3" stdDeviation="10" flood-color="#0F172A" flood-opacity=".08"/>
  </filter>
</defs>

<!-- Background -->
<rect width="580" height="434" rx="20" fill="url(#bg)"/>
<circle cx="536" cy="56" r="88" fill="#3B82F6" opacity=".06"/>
<circle cx="68" cy="396" r="72" fill="#22C55E" opacity=".06"/>
<circle cx="410" cy="320" r="44" fill="#F59E0B" opacity=".05"/>

<!-- ══════════════════════════════════════
     MAIN QUIZ CARD  x=16 y=16 w=350 h=402
     ══════════════════════════════════════ -->
<rect x="16" y="16" width="350" height="402" rx="14" fill="white" filter="url(#fcard)"/>

<!-- Dark header bar -->
<path d="M16 30 Q16 16 30 16 L352 16 Q366 16 366 30 L366 62 L16 62 Z" fill="#1E293B"/>

<!-- Header: progress text -->
<text x="32" y="46" font-family="system-ui,-apple-system,sans-serif" font-size="14" font-weight="800" fill="white">23 / 80</text>

<!-- Header: 模擬考 badge -->
<rect x="88" y="31" width="46" height="20" rx="5" fill="#F59E0B" opacity=".22"/>
<text x="111" y="45" font-family="system-ui,-apple-system,sans-serif" font-size="10" font-weight="700" fill="#FBBF24" text-anchor="middle">模擬考</text>

<!-- Header: timer -->
<text x="355" y="46" font-family="system-ui,-apple-system,sans-serif" font-size="12" font-weight="600" fill="rgba(255,255,255,.75)" text-anchor="end">⏱ 87:34</text>

<!-- Progress bar track -->
<rect x="16" y="62" width="350" height="5" fill="#E2E8F0"/>
<!-- Fill ~29% (23/80) -->
<rect x="16" y="62" width="101" height="5" fill="#3B82F6"/>

<!-- Meta badges -->
<rect x="30" y="75" width="90" height="20" rx="5" fill="#DBEAFE"/>
<text x="75" y="89" font-family="system-ui,-apple-system,sans-serif" font-size="9.5" font-weight="700" fill="#1D4ED8" text-anchor="middle">✓ 單選題（1分）</text>
<rect x="126" y="75" width="68" height="20" rx="5" fill="#EDE9FE"/>
<text x="160" y="89" font-family="system-ui,-apple-system,sans-serif" font-size="9.5" font-weight="700" fill="#6D28D9" text-anchor="middle">就業服務法</text>
<rect x="200" y="75" width="34" height="20" rx="5" fill="#F1F5F9"/>
<text x="217" y="89" font-family="system-ui,-apple-system,sans-serif" font-size="9.5" font-weight="700" fill="#64748B" text-anchor="middle">Q23</text>

<!-- Question text -->
<text x="30" y="118" font-family="system-ui,-apple-system,sans-serif" font-size="13" font-weight="700" fill="#1E293B">依就業服務法，雇主聘僱下列何種外國</text>
<text x="30" y="136" font-family="system-ui,-apple-system,sans-serif" font-size="13" font-weight="700" fill="#1E293B">人從事工作，需先申請許可？</text>

<!-- ── Option A: CORRECT (green) ── -->
<rect x="28" y="150" width="320" height="40" rx="10" fill="#DCFCE7"/>
<rect x="28" y="150" width="320" height="40" rx="10" stroke="#22C55E" stroke-width="1.5"/>
<circle cx="48" cy="170" r="10" fill="#22C55E"/>
<text x="48" y="174" font-family="system-ui,-apple-system,sans-serif" font-size="11" font-weight="900" fill="white" text-anchor="middle">A</text>
<text x="65" y="174" font-family="system-ui,-apple-system,sans-serif" font-size="11" font-weight="600" fill="#166534">受聘於五星飯店之外籍廚師</text>
<text x="342" y="174" font-family="system-ui,-apple-system,sans-serif" font-size="15" font-weight="700" fill="#22C55E" text-anchor="end">✓</text>

<!-- ── Option B: SELECTED WRONG (red) ── -->
<rect x="28" y="198" width="320" height="40" rx="10" fill="#FEE2E2"/>
<rect x="28" y="198" width="320" height="40" rx="10" stroke="#EF4444" stroke-width="1.5"/>
<circle cx="48" cy="218" r="10" fill="#EF4444"/>
<text x="48" y="222" font-family="system-ui,-apple-system,sans-serif" font-size="11" font-weight="900" fill="white" text-anchor="middle">B</text>
<text x="65" y="222" font-family="system-ui,-apple-system,sans-serif" font-size="11" font-weight="600" fill="#991B1B">外國留學生在台合法兼職</text>
<text x="342" y="222" font-family="system-ui,-apple-system,sans-serif" font-size="15" font-weight="700" fill="#EF4444" text-anchor="end">✗</text>

<!-- ── Option C: neutral ── -->
<rect x="28" y="246" width="320" height="40" rx="10" fill="#F8FAFC"/>
<circle cx="48" cy="266" r="10" fill="#CBD5E1"/>
<text x="48" y="270" font-family="system-ui,-apple-system,sans-serif" font-size="11" font-weight="900" fill="white" text-anchor="middle">C</text>
<text x="65" y="270" font-family="system-ui,-apple-system,sans-serif" font-size="11" fill="#64748B">外籍配偶在台從事工作</text>

<!-- ── Option D: neutral ── -->
<rect x="28" y="294" width="320" height="40" rx="10" fill="#F8FAFC"/>
<circle cx="48" cy="314" r="10" fill="#CBD5E1"/>
<text x="48" y="318" font-family="system-ui,-apple-system,sans-serif" font-size="11" font-weight="900" fill="white" text-anchor="middle">D</text>
<text x="65" y="318" font-family="system-ui,-apple-system,sans-serif" font-size="11" fill="#64748B">外國人在台自行創業</text>

<!-- Divider before analysis -->
<rect x="28" y="343" width="314" height="1" fill="#E2E8F0"/>

<!-- AI Analysis: result header -->
<rect x="28" y="350" width="320" height="26" rx="7" fill="#FEE2E2"/>
<text x="40" y="367" font-family="system-ui,-apple-system,sans-serif" font-size="11" font-weight="700" fill="#991B1B">❌ 答錯了　　　✓ 正確答案：A</text>

<!-- AI Analysis: coach label -->
<text x="30" y="392" font-family="system-ui,-apple-system,sans-serif" font-size="10" font-weight="800" fill="#1E293B">AI 教練解析</text>

<!-- Keypoint chip + text -->
<rect x="30" y="397" width="48" height="16" rx="4" fill="#EFF6FF"/>
<text x="54" y="409" font-family="system-ui,-apple-system,sans-serif" font-size="9" font-weight="700" fill="#1D4ED8" text-anchor="middle">🎯 核心</text>
<text x="84" y="409" font-family="system-ui,-apple-system,sans-serif" font-size="10" fill="#334155">外籍廚師屬技術性工作，雇主需申請許可</text>

<!-- Memory chip + text -->
<rect x="30" y="413" width="48" height="16" rx="4" fill="#F0FDF4"/>
<text x="54" y="425" font-family="system-ui,-apple-system,sans-serif" font-size="9" font-weight="700" fill="#166534" text-anchor="middle">💡 口訣</text>
<text x="84" y="425" font-family="system-ui,-apple-system,sans-serif" font-size="10" fill="#334155">技術性外勞需許可，服務性依契約免申請</text>


<!-- ══════════════════════════════════════
     RIGHT ANSWER MAP CARD  x=380 y=16 w=184 h=238
     ══════════════════════════════════════ -->
<rect x="380" y="16" width="184" height="238" rx="14" fill="white" filter="url(#fsm)"/>

<text x="394" y="42" font-family="system-ui,-apple-system,sans-serif" font-size="12" font-weight="800" fill="#1E293B">作答狀況</text>

<!-- Legend -->
<rect x="394" y="50" width="10" height="10" rx="2" fill="#3B82F6"/>
<text x="408" y="60" font-family="system-ui,-apple-system,sans-serif" font-size="8.5" fill="#64748B">目前</text>
<rect x="432" y="50" width="10" height="10" rx="2" fill="#DBEAFE"/>
<text x="446" y="60" font-family="system-ui,-apple-system,sans-serif" font-size="8.5" fill="#64748B">單選</text>
<rect x="470" y="50" width="10" height="10" rx="2" fill="#FEF3C7" stroke="#F59E0B" stroke-width="1"/>
<text x="484" y="60" font-family="system-ui,-apple-system,sans-serif" font-size="8.5" fill="#64748B">複選</text>
<rect x="508" y="50" width="10" height="10" rx="2" fill="#F1F5F9"/>
<text x="522" y="60" font-family="system-ui,-apple-system,sans-serif" font-size="8.5" fill="#64748B">未答</text>

<!-- Answer map grid: 5 cols × 5 rows = Q1–Q25 -->
<!-- Cell 30px, gap 4px, grid width=166, start x=389 -->

<!-- Row 1: Q1–Q5 (answered single = blue) -->
<rect x="389" y="68" width="30" height="30" rx="7" fill="#DBEAFE"/><text x="404" y="87" font-family="system-ui,-apple-system,sans-serif" font-size="10" font-weight="700" fill="#1D4ED8" text-anchor="middle">1</text>
<rect x="423" y="68" width="30" height="30" rx="7" fill="#DBEAFE"/><text x="438" y="87" font-family="system-ui,-apple-system,sans-serif" font-size="10" font-weight="700" fill="#1D4ED8" text-anchor="middle">2</text>
<rect x="457" y="68" width="30" height="30" rx="7" fill="#DBEAFE"/><text x="472" y="87" font-family="system-ui,-apple-system,sans-serif" font-size="10" font-weight="700" fill="#1D4ED8" text-anchor="middle">3</text>
<rect x="491" y="68" width="30" height="30" rx="7" fill="#DBEAFE"/><text x="506" y="87" font-family="system-ui,-apple-system,sans-serif" font-size="10" font-weight="700" fill="#1D4ED8" text-anchor="middle">4</text>
<rect x="525" y="68" width="30" height="30" rx="7" fill="#DBEAFE"/><text x="540" y="87" font-family="system-ui,-apple-system,sans-serif" font-size="10" font-weight="700" fill="#1D4ED8" text-anchor="middle">5</text>

<!-- Row 2: Q6–Q10 (8,9 = multi orange) -->
<rect x="389" y="102" width="30" height="30" rx="7" fill="#DBEAFE"/><text x="404" y="121" font-family="system-ui,-apple-system,sans-serif" font-size="10" font-weight="700" fill="#1D4ED8" text-anchor="middle">6</text>
<rect x="423" y="102" width="30" height="30" rx="7" fill="#DBEAFE"/><text x="438" y="121" font-family="system-ui,-apple-system,sans-serif" font-size="10" font-weight="700" fill="#1D4ED8" text-anchor="middle">7</text>
<rect x="457" y="102" width="30" height="30" rx="7" fill="#FEF3C7" stroke="#F59E0B" stroke-width="1.5"/><text x="472" y="121" font-family="system-ui,-apple-system,sans-serif" font-size="10" font-weight="700" fill="#92400E" text-anchor="middle">8</text>
<rect x="491" y="102" width="30" height="30" rx="7" fill="#FEF3C7" stroke="#F59E0B" stroke-width="1.5"/><text x="506" y="121" font-family="system-ui,-apple-system,sans-serif" font-size="10" font-weight="700" fill="#92400E" text-anchor="middle">9</text>
<rect x="525" y="102" width="30" height="30" rx="7" fill="#DBEAFE"/><text x="540" y="121" font-family="system-ui,-apple-system,sans-serif" font-size="10" font-weight="700" fill="#1D4ED8" text-anchor="middle">10</text>

<!-- Row 3: Q11–Q15 (13=multi) -->
<rect x="389" y="136" width="30" height="30" rx="7" fill="#DBEAFE"/><text x="404" y="155" font-family="system-ui,-apple-system,sans-serif" font-size="10" font-weight="700" fill="#1D4ED8" text-anchor="middle">11</text>
<rect x="423" y="136" width="30" height="30" rx="7" fill="#DBEAFE"/><text x="438" y="155" font-family="system-ui,-apple-system,sans-serif" font-size="10" font-weight="700" fill="#1D4ED8" text-anchor="middle">12</text>
<rect x="457" y="136" width="30" height="30" rx="7" fill="#FEF3C7" stroke="#F59E0B" stroke-width="1.5"/><text x="472" y="155" font-family="system-ui,-apple-system,sans-serif" font-size="10" font-weight="700" fill="#92400E" text-anchor="middle">13</text>
<rect x="491" y="136" width="30" height="30" rx="7" fill="#DBEAFE"/><text x="506" y="155" font-family="system-ui,-apple-system,sans-serif" font-size="10" font-weight="700" fill="#1D4ED8" text-anchor="middle">14</text>
<rect x="525" y="136" width="30" height="30" rx="7" fill="#DBEAFE"/><text x="540" y="155" font-family="system-ui,-apple-system,sans-serif" font-size="10" font-weight="700" fill="#1D4ED8" text-anchor="middle">15</text>

<!-- Row 4: Q16–Q20 (17=multi) -->
<rect x="389" y="170" width="30" height="30" rx="7" fill="#DBEAFE"/><text x="404" y="189" font-family="system-ui,-apple-system,sans-serif" font-size="10" font-weight="700" fill="#1D4ED8" text-anchor="middle">16</text>
<rect x="423" y="170" width="30" height="30" rx="7" fill="#FEF3C7" stroke="#F59E0B" stroke-width="1.5"/><text x="438" y="189" font-family="system-ui,-apple-system,sans-serif" font-size="10" font-weight="700" fill="#92400E" text-anchor="middle">17</text>
<rect x="457" y="170" width="30" height="30" rx="7" fill="#DBEAFE"/><text x="472" y="189" font-family="system-ui,-apple-system,sans-serif" font-size="10" font-weight="700" fill="#1D4ED8" text-anchor="middle">18</text>
<rect x="491" y="170" width="30" height="30" rx="7" fill="#DBEAFE"/><text x="506" y="189" font-family="system-ui,-apple-system,sans-serif" font-size="10" font-weight="700" fill="#1D4ED8" text-anchor="middle">19</text>
<rect x="525" y="170" width="30" height="30" rx="7" fill="#DBEAFE"/><text x="540" y="189" font-family="system-ui,-apple-system,sans-serif" font-size="10" font-weight="700" fill="#1D4ED8" text-anchor="middle">20</text>

<!-- Row 5: Q21–Q25 (Q23=current dark blue, 24-25 unanswered) -->
<rect x="389" y="204" width="30" height="30" rx="7" fill="#DBEAFE"/><text x="404" y="223" font-family="system-ui,-apple-system,sans-serif" font-size="10" font-weight="700" fill="#1D4ED8" text-anchor="middle">21</text>
<rect x="423" y="204" width="30" height="30" rx="7" fill="#DBEAFE"/><text x="438" y="223" font-family="system-ui,-apple-system,sans-serif" font-size="10" font-weight="700" fill="#1D4ED8" text-anchor="middle">22</text>
<!-- Q23 current -->
<rect x="457" y="204" width="30" height="30" rx="7" fill="#3B82F6"/>
<text x="472" y="223" font-family="system-ui,-apple-system,sans-serif" font-size="10" font-weight="800" fill="white" text-anchor="middle">23</text>
<!-- Q24–Q25 unanswered -->
<rect x="491" y="204" width="30" height="30" rx="7" fill="#F1F5F9"/><text x="506" y="223" font-family="system-ui,-apple-system,sans-serif" font-size="10" font-weight="700" fill="#CBD5E1" text-anchor="middle">24</text>
<rect x="525" y="204" width="30" height="30" rx="7" fill="#F1F5F9"/><text x="540" y="223" font-family="system-ui,-apple-system,sans-serif" font-size="10" font-weight="700" fill="#CBD5E1" text-anchor="middle">25</text>

<!-- Hint text -->
<text x="472" y="248" font-family="system-ui,-apple-system,sans-serif" font-size="8.5" fill="#94A3B8" text-anchor="middle">共 80 題，顯示前 25 題</text>


<!-- ══════════════════════════════════════
     RIGHT STATS CARD  x=380 y=268 w=184 h=166
     ══════════════════════════════════════ -->
<rect x="380" y="268" width="184" height="166" rx="14" fill="white" filter="url(#fsm)"/>

<text x="394" y="294" font-family="system-ui,-apple-system,sans-serif" font-size="12" font-weight="800" fill="#1E293B">本次得分</text>

<!-- Big score -->
<text x="394" y="336" font-family="system-ui,-apple-system,sans-serif" font-size="38" font-weight="900" fill="#3B82F6">18</text>
<text x="436" y="336" font-family="system-ui,-apple-system,sans-serif" font-size="15" font-weight="500" fill="#94A3B8">&nbsp;/ 100 分</text>

<!-- Divider -->
<rect x="394" y="346" width="156" height="1" fill="#E2E8F0"/>

<!-- Sub stats -->
<text x="394" y="366" font-family="system-ui,-apple-system,sans-serif" font-size="10.5" fill="#64748B">單選答對</text>
<text x="554" y="366" font-family="system-ui,-apple-system,sans-serif" font-size="10.5" font-weight="700" fill="#22C55E" text-anchor="end">14 / 17 題</text>

<text x="394" y="386" font-family="system-ui,-apple-system,sans-serif" font-size="10.5" fill="#64748B">複選全對</text>
<text x="554" y="386" font-family="system-ui,-apple-system,sans-serif" font-size="10.5" font-weight="700" fill="#60A5FA" text-anchor="end">2 / 6 題</text>

<text x="394" y="406" font-family="system-ui,-apple-system,sans-serif" font-size="10.5" fill="#64748B">尚未作答</text>
<text x="554" y="406" font-family="system-ui,-apple-system,sans-serif" font-size="10.5" font-weight="700" fill="#94A3B8" text-anchor="end">57 題</text>

<text x="394" y="424" font-family="system-ui,-apple-system,sans-serif" font-size="8.5" fill="#CBD5E1">⏱ 及格 60 分 · 尚餘 87:34</text>

</svg>
